<?xml version="1.0" standalone="no"?>
<!DOCTYPE svg PUBLIC "-//W3C//DTD SVG 20010904//EN"
 "http://www.w3.org/TR/2001/REC-SVG-20010904/DTD/svg10.dtd">
<svg version="1.0" xmlns="http://www.w3.org/2000/svg"
 width="2050.000000pt" height="1060.000000pt" viewBox="0 0 2050.000000 1060.000000"
 preserveAspectRatio="xMidYMid meet">
<metadata>
Created by potrace 1.15, written by Peter Selinger 2001-2017
</metadata>
<g transform="translate(0.000000,1060.000000) scale(0.100000,-0.100000)"
fill="#000000" stroke="none">
<path d="M0 9046 l0 -1553 78 -16 c42 -9 151 -30 242 -47 176 -32 358 -68 640
-126 96 -19 371 -73 610 -119 239 -46 584 -113 765 -149 638 -125 748 -146
752 -142 3 2 -4 7 -15 10 -17 6 -37 44 -28 54 4 3 91 -54 114 -75 7 -7 16 -13
19 -13 4 0 119 -22 257 -49 138 -28 337 -66 441 -86 105 -20 278 -54 385 -75
200 -39 459 -89 725 -139 138 -27 151 -28 168 -13 16 15 18 14 23 -4 4 -15 25
-24 112 -42 146 -32 186 -36 208 -23 15 9 12 9 -16 4 -33 -6 -34 -5 -20 12 8
11 26 29 39 41 14 12 21 26 17 32 -5 9 -11 8 -22 -3 -21 -20 -29 -19 -31 5 -1
11 2 20 7 20 16 0 71 60 65 70 -3 6 -1 10 4 10 6 0 11 -5 11 -11 0 -7 11 -8
30 -4 20 4 30 3 30 -5 0 -6 -4 -9 -8 -6 -4 2 -14 1 -22 -5 -13 -7 -12 -9 2 -9
25 0 11 -29 -18 -36 -21 -5 -36 -36 -16 -33 22 4 30 -3 25 -21 -4 -15 0 -20
15 -20 32 0 46 -33 20 -49 -11 -7 -17 -8 -14 -3 3 5 -1 15 -9 22 -13 10 -15 9
-15 -9 0 -11 -5 -21 -12 -21 -6 0 -9 -2 -7 -4 5 -4 377 -80 619 -125 281 -53
672 -130 975 -191 160 -33 364 -73 455 -90 91 -17 278 -53 415 -80 396 -77
806 -156 985 -190 204 -38 335 -63 705 -135 160 -31 315 -61 345 -66 30 -6 84
-17 120 -24 36 -8 128 -26 205 -40 77 -14 182 -34 233 -44 l93 -19 11 27 c6
14 11 47 12 72 0 26 4 45 9 42 4 -2 7 2 8 9 1 24 7 53 22 113 9 33 29 123 46
200 16 77 41 190 55 250 13 61 27 126 30 145 5 29 5 31 -4 12 -5 -13 -16 -22
-22 -20 -19 7 -21 43 -3 58 8 7 15 20 15 29 1 24 27 55 33 39 4 -8 6 -7 6 5 1
9 -4 17 -10 17 -5 0 -7 5 -4 10 4 6 11 7 17 4 8 -5 9 3 5 25 -4 18 -3 30 2 27
5 -3 16 27 25 67 9 39 25 114 37 165 12 51 19 102 16 113 -3 10 -1 17 4 13 5
-3 9 2 9 10 0 9 -4 16 -10 16 -5 0 -10 7 -10 16 0 10 6 14 14 11 10 -4 17 2
21 16 4 12 9 30 11 39 3 10 -5 23 -20 33 -24 16 -27 16 -56 -5 -16 -12 -30
-28 -30 -36 0 -8 -4 -14 -10 -14 -5 0 -10 6 -10 14 0 8 -6 16 -12 18 -9 3 -8
9 5 22 9 9 21 15 26 12 15 -9 33 22 26 44 -9 29 10 25 23 -5 7 -15 20 -25 32
-25 11 0 20 -5 20 -12 0 -28 19 11 29 60 14 69 13 83 -4 52 -8 -14 -14 -19
-15 -12 0 8 -5 10 -12 6 -8 -5 -7 -1 2 10 13 16 12 20 -5 33 -18 13 -21 12
-27 -9 -11 -42 -9 -61 7 -54 8 3 15 1 15 -5 0 -6 5 -7 10 -4 6 3 10 2 10 -3 0
-5 -10 -12 -22 -15 -35 -10 -77 50 -47 68 5 4 9 14 7 23 -4 20 29 55 42 47 6
-4 10 -15 10 -25 0 -13 5 -17 15 -14 8 4 15 17 15 30 0 13 4 24 8 24 5 0 7
-15 5 -32 l-3 -33 9 30 c18 62 113 487 125 563 4 20 2 31 -4 27 -6 -3 -10 3
-10 14 0 11 5 23 10 26 6 3 10 1 10 -6 0 -31 11 5 29 92 11 52 40 184 64 294
69 304 127 573 127 582 0 4 -5 1 -10 -7 -7 -12 -10 -8 -10 15 0 21 3 26 9 16
13 -21 18 -5 51 155 16 82 39 190 50 239 69 303 80 365 62 339 -5 -7 -14 -7
-29 1 -25 13 -20 25 9 25 10 0 18 6 18 13 0 9 3 8 9 -2 11 -17 13 -12 46 154
14 72 37 182 50 245 13 63 26 129 28 145 2 17 7 37 10 45 13 32 36 197 30 218
-3 13 -1 22 6 22 6 0 11 9 11 19 0 13 -9 21 -27 24 -16 3 -91 17 -168 31 -77
14 -194 35 -260 46 -66 11 -183 31 -260 45 -77 13 -178 31 -225 40 -75 13
-501 15 -3425 15 l-3340 0 -17 -31 c-22 -38 -52 -36 -56 4 l-3 27 -2000 0
-1999 0 0 -1554z m10833 -2039 c3 -7 -8 -30 -24 -51 -16 -22 -26 -43 -23 -47
3 -5 0 -9 -6 -9 -6 0 -15 -12 -21 -27 -6 -16 -17 -41 -25 -57 -8 -16 -14 -35
-14 -41 0 -7 -9 -24 -20 -38 -13 -16 -16 -28 -10 -32 15 -9 1 -27 -16 -21 -16
6 -29 -10 -14 -19 13 -8 13 -55 0 -55 -5 0 -10 10 -10 21 0 31 -27 7 -35 -32
-4 -16 -11 -29 -16 -29 -13 0 -11 24 3 38 7 7 10 12 7 12 -3 0 -16 -12 -30
-27 -13 -14 -19 -23 -12 -19 19 11 34 -26 18 -47 -12 -16 -13 -16 -18 3 -3 11
-11 20 -19 19 -10 0 -10 -2 0 -6 10 -4 10 -8 1 -19 -11 -13 -8 -67 6 -111 5
-17 3 -23 -8 -23 -20 0 -27 -21 -27 -80 0 -57 -26 -95 -43 -65 -5 10 -5 20 -1
24 5 3 9 40 9 81 0 41 4 89 9 105 22 73 39 115 46 115 5 0 11 18 15 40 4 22
12 40 18 40 7 0 13 11 13 25 2 31 45 135 56 135 4 0 8 10 8 23 0 37 14 51 38
38 28 -15 35 -14 28 4 -3 10 1 15 12 15 10 0 23 14 31 33 18 41 54 97 62 97 4
0 9 -6 12 -13z m-5161 -34 c6 -73 6 -103 -1 -98 -5 2 -2 -13 5 -35 12 -33 24
-91 38 -175 6 -36 18 -65 28 -65 5 0 7 -8 3 -19 -3 -10 -2 -29 3 -42 10 -26 6
-49 -9 -49 -5 0 -9 8 -9 18 0 10 -11 25 -25 32 -15 8 -25 22 -25 36 0 22 -6
40 -36 111 -20 45 -19 206 1 223 8 7 15 19 15 26 0 8 -7 14 -15 14 -18 0 -19
12 -3 28 17 17 28 15 30 -5z m3717 -249 c-12 -15 -11 -16 7 -10 27 8 43 -23
19 -36 -8 -5 -15 -17 -15 -27 0 -10 -11 -23 -25 -29 -15 -7 -25 -20 -25 -32 0
-24 4 -25 24 -4 9 8 16 11 16 6 0 -13 -32 -39 -54 -43 -11 -2 -21 -10 -24 -18
-3 -10 2 -13 21 -9 14 3 30 2 35 -1 15 -9 19 -43 6 -48 -7 -2 -11 4 -10 13 0
9 -4 19 -11 21 -8 3 -10 -4 -7 -20 5 -32 -17 -50 -50 -41 -19 5 -25 12 -24 30
2 18 7 23 21 18 16 -5 17 -4 5 16 -11 18 -10 23 10 38 19 15 21 22 13 50 -7
24 -6 35 5 46 8 8 14 19 13 23 -5 23 29 72 50 73 11 0 11 -3 0 -16z"/>
<path d="M12295 10588 c10 -27 12 -77 3 -72 -5 4 -7 -8 -3 -28 3 -18 8 -42 10
-53 2 -11 4 -20 5 -20 2 0 6 -31 13 -93 3 -24 10 -49 17 -57 6 -7 10 -24 9
-37 -4 -39 1 -59 11 -53 6 3 10 1 10 -4 0 -6 -5 -11 -10 -11 -7 0 -7 -7 0 -21
9 -15 8 -24 -1 -35 -8 -10 -9 -21 -2 -37 6 -13 7 -31 2 -45 -6 -15 -5 -21 2
-17 6 4 7 -3 3 -19 -3 -14 -1 -40 5 -58 8 -22 8 -34 1 -36 -6 -2 -6 -11 2 -25
6 -12 12 -51 12 -87 1 -36 4 -67 7 -70 8 -6 52 -236 51 -267 0 -13 4 -23 8
-23 10 0 22 -51 22 -96 0 -19 4 -34 9 -34 5 0 9 -8 9 -18 0 -10 5 -23 11 -29
6 -6 12 -36 13 -66 0 -30 4 -50 7 -45 7 10 18 -32 17 -62 0 -8 11 -49 25 -90
14 -41 27 -91 30 -110 2 -19 9 -47 15 -62 6 -14 12 -54 13 -87 1 -34 6 -61 11
-61 5 0 6 -4 3 -10 -3 -5 -1 -18 4 -29 6 -11 13 -36 17 -56 3 -21 14 -51 25
-69 10 -17 19 -39 19 -49 0 -10 5 -15 10 -12 10 6 14 -13 11 -47 -1 -10 3 -18
8 -18 6 0 11 -9 11 -19 0 -10 7 -22 16 -25 10 -4 14 -12 10 -22 -4 -9 -2 -22
3 -28 13 -17 25 -59 14 -53 -14 9 30 -121 66 -196 69 -145 99 -215 116 -272 9
-33 21 -69 25 -80 33 -76 50 -123 53 -140 2 -11 7 -27 10 -35 32 -86 46 -132
41 -145 -24 -62 144 7 326 134 159 111 367 308 356 337 -3 8 -2 13 3 10 5 -3
16 5 25 19 9 14 12 25 7 25 -5 0 -18 3 -28 6 -16 5 -16 4 1 -10 11 -9 18 -16
15 -17 -2 0 -11 -2 -19 -4 -23 -4 -22 43 1 50 26 9 24 23 -3 27 -18 2 -23 9
-21 31 1 15 10 40 21 55 11 15 18 37 16 50 -4 26 12 30 19 5 4 -15 5 -15 6 -2
0 9 -6 22 -14 29 -10 9 -15 9 -15 1 0 -6 -8 -11 -17 -11 -16 1 -16 2 1 15 19
14 19 15 0 36 -19 22 -19 22 4 8 12 -8 22 -17 22 -21 0 -5 4 -8 10 -8 6 0 6 9
0 26 -16 40 -12 49 11 28 22 -19 22 -19 8 4 -8 12 -19 22 -26 22 -15 0 -17 26
-3 35 6 3 10 12 10 18 0 7 -4 6 -10 -3 -9 -13 -11 -13 -20 0 -13 19 -13 30 0
30 6 0 10 7 10 16 0 10 6 14 14 11 10 -4 13 -1 9 9 -4 11 -9 12 -16 5 -16 -16
-27 -13 -27 7 0 10 -6 24 -12 31 -11 12 -10 13 6 7 20 -7 20 -7 1 16 -11 13
-29 31 -40 40 -19 16 -13 23 16 20 12 -2 -5 53 -20 65 -13 10 -14 14 -2 22 11
7 10 13 -4 35 -9 14 -15 33 -11 41 3 9 0 15 -8 15 -19 0 -29 30 -15 46 8 10 7
21 -4 43 -11 22 -12 31 -3 34 7 3 5 11 -7 25 -14 15 -15 21 -5 25 7 3 -3 3
-22 0 l-35 -5 27 24 c17 15 26 33 25 50 -1 16 -6 23 -12 19 -5 -5 -18 -8 -29
-8 -17 0 -17 1 -2 12 20 15 21 29 1 21 -9 -3 -15 0 -15 10 0 8 -4 12 -10 9 -5
-3 -10 3 -10 14 0 12 8 21 23 24 l22 4 -23 2 c-14 0 -21 5 -16 12 4 8 -1 9
-16 4 -16 -5 -20 -4 -15 5 5 9 1 10 -16 5 -16 -4 -19 -3 -11 3 9 6 10 15 3 35
-11 28 -8 31 20 28 9 -1 19 6 23 15 8 22 -1 31 -16 16 -18 -18 -38 -15 -32 6
5 16 5 16 -9 0 -8 -10 -17 -15 -21 -11 -4 4 -4 0 0 -10 3 -9 1 -17 -4 -17 -17
0 -24 18 -14 37 5 10 12 31 16 46 6 27 6 27 -16 13 -25 -16 -56 -7 -44 13 5 7
-4 11 -26 11 l-32 0 34 30 c39 33 33 40 -9 11 -15 -11 -40 -22 -57 -25 -25 -5
-23 -3 11 13 22 11 36 20 30 20 -5 1 5 10 24 22 18 11 31 22 28 25 -3 3 -16
-2 -30 -11 -32 -20 -51 0 -21 23 18 13 18 14 -4 7 -18 -5 -22 -3 -19 14 2 11
6 24 10 27 4 4 7 12 7 17 0 6 -11 0 -25 -13 -14 -13 -25 -19 -25 -13 0 6 7 16
15 23 8 7 15 17 15 22 0 6 -7 8 -15 4 -8 -3 -15 -2 -15 3 0 4 -15 6 -32 4 -18
-2 -27 0 -19 3 8 4 28 20 45 37 22 22 25 28 11 23 -11 -5 -32 -13 -47 -18 -16
-5 -26 -13 -24 -17 3 -4 0 -13 -5 -21 -9 -13 -10 -13 -8 0 3 32 -1 41 -18 37
-58 -16 -73 -17 -73 -4 0 9 11 12 34 9 27 -3 37 1 48 17 7 12 17 21 22 21 4 0
3 -7 -4 -15 -18 -21 -9 -26 15 -9 18 14 19 16 3 25 -21 12 -12 43 10 34 12 -5
13 -3 2 10 -12 14 -15 14 -34 -3 -24 -22 -64 -34 -71 -22 -3 5 5 17 17 27 13
10 24 24 25 30 3 14 -32 27 -47 18 -5 -3 -10 -1 -10 4 0 15 -27 14 -33 -1 -2
-7 -8 -10 -12 -6 -9 8 18 38 34 38 6 0 11 4 11 8 0 4 10 8 23 9 12 0 36 1 52
2 l30 3 -29 8 c-19 6 -42 4 -70 -5 -59 -21 -66 -18 -24 10 20 14 47 25 60 26
22 0 22 1 3 8 -11 5 -25 4 -32 -1 -19 -15 -16 2 5 26 17 21 17 21 -3 5 -11 -9
-25 -15 -31 -12 -6 2 -17 -3 -24 -12 -16 -19 -44 -19 -60 0 -7 8 -19 15 -26
15 -8 0 -14 5 -14 10 0 13 3 13 35 -2 14 -6 25 -15 25 -19 0 -5 7 -6 15 -3 15
6 22 26 8 22 -5 -1 -19 4 -32 11 l-25 14 22 17 c20 16 20 19 4 25 -16 6 -16 7
1 16 9 6 17 20 17 31 0 17 -3 19 -12 10 -7 -7 -23 -12 -37 -12 -22 0 -19 4 18
20 52 24 50 37 -2 15 -43 -18 -49 -5 -11 20 14 9 24 18 22 20 -2 2 -30 -3 -63
-10 -53 -12 -58 -12 -41 1 11 7 28 14 37 14 10 0 20 4 23 9 3 5 -11 8 -31 6
-21 -1 -28 -1 -16 2 12 2 26 10 32 17 8 10 4 11 -21 8 -23 -4 -29 -1 -26 9 3
9 16 13 35 11 17 -2 34 2 38 8 3 5 11 8 16 5 5 -4 17 -2 26 4 14 8 9 9 -21 6
-21 -3 -42 -7 -46 -10 -5 -3 -11 -1 -15 5 -3 5 1 10 9 10 9 0 16 5 16 10 0 6
-6 10 -12 10 -7 0 -20 5 -28 10 -13 9 -13 11 0 21 13 9 13 10 0 6 -22 -6 -25
-37 -3 -37 17 -1 17 -1 0 -14 -18 -14 -57 -11 -57 5 0 5 8 9 18 9 14 0 15 2 2
10 -12 7 -11 12 5 32 11 13 24 26 28 29 5 3 -2 9 -14 12 -13 4 -28 2 -33 -3
-6 -6 -21 -10 -35 -10 l-25 0 22 16 c34 23 26 37 -10 18 l-33 -16 30 26 c17
14 45 30 63 36 49 17 38 30 -20 25 -48 -4 -51 -3 -34 10 11 8 16 15 12 15 -5
0 2 8 15 18 l22 19 -34 0 c-26 1 -30 -1 -14 -7 18 -7 19 -8 3 -15 -10 -4 -24
-5 -31 -2 -16 6 -15 60 1 80 10 11 9 17 -3 27 -14 12 -14 15 1 31 9 10 21 16
25 13 13 -8 10 7 -6 36 -8 14 -14 19 -15 13 0 -7 -8 -13 -17 -13 -13 0 -14 3
-6 11 6 6 9 18 5 27 -4 11 -1 14 9 10 11 -4 15 0 15 15 -1 13 9 26 24 34 24
12 24 13 3 13 -12 0 -25 -4 -28 -10 -11 -18 -35 -11 -28 8 6 14 4 15 -9 4 -13
-10 -17 -10 -22 3 -3 9 1 18 9 21 15 6 21 25 8 23 -5 -1 -15 -1 -23 0 -12 1
-11 5 4 16 10 8 23 12 29 8 6 -3 7 -1 3 5 -11 18 -557 17 -551 0z"/>
<path d="M16602 8079 c-13 -16 -32 -29 -42 -29 -9 0 -23 -7 -30 -15 -7 -9 -15
-13 -18 -10 -10 10 -42 -28 -42 -51 0 -13 -4 -25 -9 -29 -5 -3 -17 -27 -26
-54 -10 -31 -28 -58 -50 -76 -22 -17 -35 -36 -35 -51 0 -13 -5 -24 -11 -24 -6
0 -8 -9 -3 -22 6 -20 5 -21 -9 -10 -18 15 -30 2 -20 -24 5 -13 3 -16 -9 -11
-11 4 -20 -3 -28 -24 -7 -17 -20 -29 -30 -29 -10 0 -20 -4 -22 -10 -1 -5 -13
-7 -26 -3 -14 3 -21 11 -18 19 3 7 1 16 -4 19 -4 3 -10 0 -12 -7 -2 -6 -10 -8
-16 -4 -8 5 -10 16 -6 28 4 13 2 18 -4 14 -6 -4 -8 2 -5 14 7 28 -15 25 -26
-2 -12 -32 -29 -108 -24 -108 2 0 9 14 14 30 17 48 59 32 59 -22 0 -18 5 -28
14 -28 8 0 18 -4 21 -10 7 -12 -12 -50 -26 -50 -6 0 -8 4 -5 9 3 5 -3 11 -14
14 -18 5 -18 3 -4 -18 13 -20 13 -23 -1 -28 -9 -4 -15 -1 -15 9 0 10 -6 14
-14 11 -8 -3 -17 2 -21 11 -3 9 -1 18 4 20 8 3 7 10 0 25 -11 19 -12 19 -24 3
-13 -17 -32 -5 -20 13 3 5 -2 16 -10 24 -18 19 -20 31 -2 21 6 -4 3 2 -7 14
-27 31 -50 29 -42 -3 4 -14 2 -25 -3 -25 -6 0 -9 -6 -7 -12 17 -55 16 -67 -6
-65 -13 0 -27 6 -31 12 -6 7 -10 6 -14 -2 -2 -7 -9 -13 -14 -13 -5 0 -2 14 6
31 9 17 18 53 20 80 3 40 1 49 -13 49 -12 0 -13 3 -4 12 7 7 12 27 12 45 0 22
8 40 27 58 19 17 23 25 12 25 -8 0 -21 -6 -27 -12 -7 -7 -36 -18 -65 -25 -50
-11 -55 -10 -123 23 -39 19 -78 34 -86 34 -8 0 -23 9 -32 19 -10 11 -36 23
-59 27 -23 3 -47 14 -54 23 -10 14 -13 13 -22 -12 -6 -16 -11 -38 -11 -50 0
-16 -14 -30 -55 -52 -30 -16 -58 -37 -61 -47 -3 -10 -10 -18 -16 -18 -7 0 -6
5 2 15 6 8 9 19 5 25 -3 6 -22 -13 -42 -42 -43 -64 -78 -103 -67 -75 11 30 -9
19 -48 -25 -35 -40 -38 -42 -44 -21 -16 58 -69 17 -118 -90 l-35 -78 15 -69
c9 -39 19 -70 23 -70 3 0 7 -13 8 -29 1 -17 15 -56 31 -88 43 -85 46 -107 22
-153 -11 -21 -20 -46 -20 -55 0 -9 -4 -13 -10 -10 -5 3 -10 0 -10 -7 1 -7 25
-30 55 -51 30 -20 87 -74 126 -120 40 -45 113 -125 162 -177 49 -52 97 -106
106 -120 33 -52 106 -144 172 -218 38 -43 82 -93 98 -112 17 -19 44 -51 60
-70 17 -19 31 -41 31 -48 0 -7 4 -11 8 -8 4 2 18 -9 31 -25 52 -65 146 -87
208 -49 38 23 66 62 61 85 -3 15 -6 14 -30 -5 -27 -21 -40 -16 -17 7 8 8 -1
19 -32 39 -56 38 -64 60 -18 50 19 -5 41 -8 49 -7 76 4 190 2 199 -4 7 -4 24
-3 39 1 15 4 30 7 34 6 4 -1 23 5 43 14 20 8 67 19 103 24 117 17 194 38 235
65 14 8 29 15 33 13 10 -3 122 40 189 73 22 10 46 19 53 19 6 0 22 11 34 25
11 13 25 22 29 19 5 -3 19 2 31 10 12 9 31 16 41 16 23 0 116 70 117 88 0 11
5 14 39 16 8 1 18 10 22 21 4 11 8 14 8 6 1 -10 4 -11 14 -2 8 6 16 9 18 7 2
-2 5 6 5 19 1 14 9 31 18 40 8 9 20 24 26 33 8 15 11 15 20 2 9 -13 12 -13 25
4 7 10 18 15 24 11 6 -3 11 -2 11 4 0 5 -6 12 -12 14 -10 4 -10 6 0 6 6 1 12
8 12 16 0 8 5 15 11 15 6 0 1 9 -12 21 l-24 20 30 -6 30 -6 -25 21 c-22 18
-23 20 -5 18 14 -2 19 2 17 15 -2 11 7 21 25 28 15 6 23 13 16 16 -7 2 -9 11
-6 19 3 8 -1 14 -8 14 -7 0 -9 3 -6 7 4 3 -1 12 -10 18 -15 11 -13 13 15 20
18 3 32 10 32 13 0 4 -18 15 -39 26 -39 18 -39 19 -20 39 10 11 19 24 19 28 0
4 3 14 6 23 4 11 0 16 -11 16 -17 0 -17 1 -2 18 10 10 14 22 10 25 -3 4 0 13
9 20 23 18 36 68 27 101 -5 16 -6 33 -3 38 4 5 -3 12 -14 15 -13 3 -18 11 -15
23 9 32 -16 88 -41 94 -19 5 -22 11 -18 31 3 18 0 25 -12 25 -9 0 -16 7 -16
15 0 18 -16 20 -23 3 -3 -7 -6 -1 -6 15 -1 43 -43 103 -63 91 -4 -3 -10 6 -14
20 -4 16 -11 23 -20 19 -8 -3 -17 3 -21 13 -3 10 -25 36 -49 59 -23 23 -45 51
-48 63 -4 12 -11 22 -16 22 -5 0 -24 13 -42 28 -18 16 -46 32 -61 36 -16 4
-42 22 -59 41 -16 19 -36 35 -42 35 -23 0 -54 45 -63 89 -8 41 -10 43 -25 28
-15 -15 -18 -14 -43 18 -14 20 -31 33 -36 30 -5 -4 -9 -1 -9 4 0 6 -5 11 -11
11 -7 0 -8 -11 -4 -30 4 -19 3 -30 -4 -30 -6 0 -11 15 -12 33 l-1 32 -10 -28
-10 -29 -19 31 c-20 33 -43 43 -32 14 5 -13 3 -15 -13 -9 -10 5 -28 11 -39 14
-11 3 -24 10 -28 16 -6 8 -10 7 -14 -1 -2 -7 -11 -13 -19 -13 -10 0 -13 -7 -8
-25 3 -14 2 -25 -4 -25 -14 0 -22 24 -15 49 7 28 3 26 -25 -10z m-861 -501
c-1 -5 -1 -21 -1 -37 0 -29 -11 -43 -162 -209 l-39 -43 -18 23 c-16 19 -21 21
-35 9 -13 -11 -22 -11 -42 -2 -30 13 -37 14 -30 2 4 -5 -2 -7 -11 -5 -26 6
-44 -9 -45 -37 -1 -13 -8 -32 -16 -41 -14 -16 -13 -18 2 -18 10 0 14 -5 10
-11 -3 -6 0 -16 7 -21 10 -7 11 -11 2 -14 -7 -3 -9 -12 -6 -20 3 -9 -2 -14
-18 -15 -17 -1 -19 -3 -6 -6 30 -8 19 -26 -12 -20 -22 5 -30 2 -33 -10 -3 -13
-6 -13 -28 5 -24 19 -26 26 -56 180 -8 41 12 85 36 77 24 -8 50 4 50 23 0 8
14 27 30 41 21 18 35 42 43 76 11 47 14 50 52 57 102 20 113 20 136 4 31 -21
86 -20 129 3 35 19 62 23 61 9z"/>
<path d="M0 3609 l0 -3609 991 0 c782 0 988 3 983 13 -6 9 -5 9 7 0 12 -10
502 -13 2276 -13 1244 0 2263 4 2265 8 1 5 16 12 32 16 23 6 27 4 23 -9 -6
-13 18 -15 211 -14 119 1 209 4 200 6 -20 5 -24 38 -7 49 6 3 15 1 19 -6 4 -7
15 -10 25 -7 13 5 15 3 10 -12 -3 -11 -1 -22 5 -26 7 -4 14 2 17 14 7 26 14
26 55 1 27 -16 51 -20 135 -20 90 0 104 2 112 19 10 18 6 31 -11 31 -5 0 -7
-4 -4 -9 6 -9 -43 -26 -51 -17 -3 2 0 14 7 25 9 17 8 21 -5 21 -8 0 -15 9 -15
20 0 11 -5 20 -11 20 -6 0 -8 -9 -4 -22 7 -22 6 -22 -11 -5 -15 14 -16 19 -6
26 7 4 15 17 16 27 4 27 65 66 97 62 23 -4 24 -2 15 19 -6 13 -18 23 -26 23
-13 0 -13 1 0 10 12 8 12 10 -5 10 -18 0 -60 -19 -43 -20 11 0 -50 -60 -62
-60 -11 0 -12 6 -15 68 -1 23 2 42 6 42 12 0 31 -39 25 -49 -3 -5 1 -11 9 -15
16 -6 19 7 15 54 -2 24 -1 24 17 7 11 -9 26 -17 34 -17 10 1 9 3 -3 11 -23 13
-23 29 0 29 10 0 23 5 29 11 8 8 13 3 17 -19 4 -16 6 -35 4 -42 -2 -8 4 -15
13 -17 17 -4 20 22 5 46 -12 18 -17 81 -8 81 5 0 13 -5 18 -10 8 -8 15 -6 24
5 7 8 20 15 29 15 13 1 13 3 -4 16 -16 11 -17 18 -8 32 6 9 18 16 27 14 9 -2
26 8 39 22 12 14 31 26 42 28 11 2 23 10 26 18 3 8 11 16 18 16 6 1 18 2 26 3
8 0 15 8 15 16 0 18 21 20 39 3 10 -11 11 -10 6 5 -4 10 -2 17 4 17 7 0 15 -8
18 -17 4 -10 12 -23 18 -29 10 -10 11 -50 6 -141 -1 -7 -11 -23 -22 -34 -17
-17 -23 -19 -30 -8 -4 8 -4 16 2 19 5 4 0 15 -12 25 -20 19 -20 19 -14 -7 4
-15 2 -29 -4 -32 -6 -4 -11 -1 -11 6 -1 7 -8 0 -16 -16 -12 -21 -18 -25 -24
-16 -7 11 -11 11 -24 1 -9 -8 -16 -19 -15 -25 0 -7 2 -6 6 2 7 17 23 15 23 -3
0 -8 -4 -15 -10 -15 -5 0 -10 -6 -10 -14 0 -8 -8 -17 -17 -19 -17 -4 -17 -5 0
-6 19 -1 24 -31 5 -31 -10 0 -10 -2 -1 -8 8 -5 8 -13 -2 -32 l-13 -25 -7 28
c-4 15 -11 27 -16 27 -5 0 -9 7 -9 15 0 8 -4 15 -9 15 -13 0 -24 -34 -13 -38
6 -2 8 -11 5 -21 -2 -10 4 -33 15 -51 l20 -32 -26 -23 c-25 -22 -25 -22 -4
-27 12 -4 22 -2 22 2 0 14 41 -2 53 -21 17 -28 40 -23 58 14 10 20 23 31 33
29 14 -2 14 1 5 22 -12 26 1 56 23 56 7 0 6 -5 -1 -13 -6 -8 -8 -17 -4 -21 4
-4 9 -18 10 -31 3 -18 -1 -25 -13 -25 -11 0 -14 -5 -10 -16 3 -9 6 -20 6 -25
0 -5 361 -8 918 -7 l917 3 32 140 c17 77 32 157 32 178 1 42 20 126 32 142 9
12 39 130 74 290 14 66 36 167 50 225 34 148 44 201 39 214 -2 6 7 61 21 121
14 61 32 144 40 186 7 42 21 102 30 133 9 32 15 59 13 60 -20 15 -88 44 -82
35 4 -7 1 -10 -7 -7 -8 3 -14 14 -14 25 0 12 -3 25 -7 29 -5 4 -8 14 -8 23 0
11 3 11 16 -5 15 -19 15 -19 11 2 -5 24 9 54 25 54 5 0 8 -7 4 -15 -3 -8 4
-21 17 -30 16 -12 19 -17 9 -27 -9 -9 -12 -9 -12 0 0 7 -5 12 -11 12 -8 0 -8
-4 0 -14 9 -11 9 -15 -1 -19 -7 -2 -1 -4 14 -3 22 1 28 6 28 23 0 16 5 20 19
16 21 -5 21 -6 56 150 10 43 15 81 11 84 -3 3 -9 -9 -12 -27 -4 -20 -14 -35
-26 -37 -19 -5 -26 -33 -8 -33 6 0 10 -11 10 -25 0 -23 -2 -25 -21 -14 -17 8
-20 17 -15 40 3 17 2 28 -3 24 -19 -11 -38 7 -38 38 0 18 2 26 5 19 5 -16 29
-16 35 1 2 6 8 9 13 4 4 -4 -2 -14 -14 -23 -27 -19 -29 -34 -3 -27 12 3 23 17
26 33 3 16 13 31 21 34 10 4 13 13 9 29 -5 17 -2 26 9 30 9 4 16 13 16 22 0
12 -4 14 -19 6 -16 -9 -18 -8 -14 8 3 10 0 22 -6 25 -14 9 -14 26 -1 26 6 0
10 -6 10 -14 0 -7 9 -20 21 -27 18 -12 19 -19 11 -56 -6 -24 -7 -43 -3 -43 5
0 13 26 20 58 7 31 15 68 18 81 4 15 2 22 -4 18 -16 -10 -25 23 -12 39 17 21
3 64 -21 64 -21 0 -29 20 -7 20 6 0 3 6 -8 12 -11 6 -21 12 -23 13 -1 1 0 10
4 19 5 14 9 13 37 -6 27 -19 30 -20 24 -4 -5 13 -1 19 13 23 14 4 20 14 20 34
0 16 -4 29 -8 29 -4 0 -8 9 -9 20 -1 11 2 20 8 20 5 0 9 -9 9 -20 0 -11 5 -20
11 -20 11 0 8 -35 -6 -72 -4 -10 -3 -18 2 -18 5 0 15 33 24 73 14 74 14 74 -8
84 -19 9 -23 8 -23 -5 0 -15 -2 -15 -10 -2 -13 20 -13 40 1 40 6 0 17 7 26 15
12 13 13 18 3 31 -11 12 -10 13 4 8 25 -9 20 17 -9 49 -14 15 -22 27 -16 27 5
0 21 -14 36 -32 27 -31 28 -52 9 -102 -5 -13 -4 -17 4 -12 6 4 14 29 18 57 4
28 14 60 24 71 l17 22 19 -30 c10 -16 60 -84 111 -152 51 -67 93 -129 93 -138
0 -9 16 -32 36 -52 79 -79 224 -258 224 -278 0 -5 23 -34 50 -64 27 -30 56
-62 64 -71 22 -26 37 -85 30 -114 -5 -19 -3 -26 4 -21 6 4 13 -14 17 -46 4
-29 16 -74 26 -100 10 -27 17 -48 14 -48 -11 0 -53 99 -60 140 -4 25 -12 50
-17 57 -5 7 -7 17 -3 23 3 5 1 10 -4 10 -6 0 -11 -7 -11 -15 0 -8 -6 -15 -14
-15 -8 0 -18 -5 -22 -11 -13 -21 -22 -79 -13 -85 5 -3 9 5 9 18 0 42 25 -2 55
-97 15 -49 35 -99 44 -110 15 -18 15 -19 -1 -6 -26 19 -23 -4 3 -28 l21 -20
-21 6 c-25 6 -36 21 -36 48 0 14 -7 20 -23 20 -12 0 -26 5 -30 11 -11 16 -51
36 -62 29 -5 -3 -11 -1 -15 5 -3 5 -23 14 -45 20 -53 14 -132 103 -181 205
-48 99 -83 254 -76 340 l5 60 -18 -40 c-53 -116 -41 -341 27 -507 22 -56 24
-66 12 -103 -6 -22 -13 -53 -14 -70 -3 -30 -47 -205 -60 -238 -4 -9 -17 -19
-29 -22 -85 -19 -119 -25 -124 -20 -13 12 -34 -42 -58 -147 -68 -308 -105
-492 -100 -504 6 -15 8 -14 122 14 100 25 274 55 280 49 3 -3 -14 -22 -38 -43
-24 -22 -88 -82 -143 -135 -112 -107 -189 -159 -241 -161 -19 -1 -38 -6 -43
-12 -9 -12 -51 -183 -51 -210 0 -15 63 -16 733 -16 l732 0 35 53 c19 28 44 68
55 87 35 62 108 160 166 224 31 33 70 86 87 116 17 30 52 83 79 116 57 73 138
183 175 239 14 22 45 65 67 95 22 30 51 71 64 90 32 47 137 172 199 237 39 41
53 51 66 44 9 -5 19 -8 22 -8 7 2 84 -56 93 -71 12 -18 61 -62 70 -62 4 0 30
-16 57 -35 43 -31 82 -51 185 -96 22 -10 238 -55 327 -69 32 -4 62 -11 68 -15
5 -3 47 -13 92 -21 147 -26 176 -32 195 -42 18 -10 112 -28 126 -24 4 1 16 -2
27 -8 11 -6 41 -12 67 -15 123 -11 155 -18 160 -34 21 -68 46 -81 158 -82 111
-1 248 36 322 87 89 61 144 147 163 255 22 128 17 119 64 119 23 0 60 9 82 20
l39 19 -50 1 c-57 0 -51 14 17 40 53 19 104 86 83 110 -21 25 -37 89 -31 123
9 49 0 55 -93 53 -57 -1 -85 3 -88 11 -2 7 8 13 24 15 20 2 29 10 33 28 5 20
12 25 39 26 35 1 74 33 85 70 5 16 -1 31 -23 54 -21 24 -32 50 -40 95 -6 35
-8 71 -5 81 12 37 49 104 57 104 5 0 5 25 2 55 -6 44 -5 55 7 55 25 0 73 -118
62 -153 -5 -17 -7 -17 -31 -2 -27 18 -26 12 11 -38 19 -26 21 -43 21 -185 0
-113 2 -149 9 -129 6 15 15 27 22 27 7 0 15 19 19 43 3 23 17 84 31 136 30
115 25 146 -28 209 -22 26 -48 56 -57 67 -9 11 -27 27 -40 36 -24 15 -24 16
-12 95 6 44 14 132 17 195 3 62 7 120 10 128 2 8 7 111 10 230 3 119 7 237 8
264 1 26 -2 47 -7 47 -5 0 -5 6 1 13 5 6 8 32 7 57 -2 25 -6 92 -10 149 -3 58
-9 110 -14 115 -5 6 -9 18 -9 26 -3 85 -14 165 -23 170 -5 4 -9 11 -8 16 5 27
-2 55 -13 51 -14 -4 -12 -45 4 -64 6 -7 12 -43 14 -80 2 -38 6 -99 9 -138 3
-38 6 -109 9 -157 3 -87 3 -88 -20 -88 -17 0 -22 4 -18 15 4 8 10 15 15 15 5
0 9 5 9 11 0 6 -6 9 -14 6 -8 -3 -16 2 -19 15 -7 26 -33 18 -30 -10 3 -23 -11
-36 -44 -45 -27 -6 -39 8 -23 28 7 9 8 15 0 20 -5 3 -10 1 -10 -4 0 -6 -7 -11
-15 -11 -8 0 -15 5 -15 11 0 5 -6 7 -12 4 -7 -4 -1 4 15 17 15 13 27 31 27 40
0 10 8 22 18 28 15 10 15 10 -3 8 -11 -2 -23 -7 -27 -13 -5 -6 -11 -6 -19 2
-8 8 -6 13 8 17 11 3 29 19 41 35 20 28 20 29 1 24 -10 -3 -22 -9 -25 -14 -9
-15 -24 -10 -24 9 0 10 -5 23 -12 30 -8 8 -8 12 -1 12 6 0 10 11 9 25 0 16 -6
24 -16 22 -15 -2 -19 13 -21 83 -1 30 -3 32 -14 17 -15 -21 -25 -22 -25 -2 0
8 5 15 10 15 19 0 10 52 -15 82 -14 16 -25 25 -25 19 0 -5 -24 -45 -53 -88
-29 -43 -64 -107 -77 -143 -13 -36 -47 -105 -74 -153 -43 -76 -62 -98 -143
-163 -51 -42 -93 -78 -93 -81 0 -3 7 -11 17 -18 21 -15 11 -45 -18 -52 -18 -5
-20 -11 -16 -47 7 -55 56 -195 78 -224 10 -13 16 -29 13 -36 -3 -8 7 -23 23
-35 26 -22 73 -103 73 -129 0 -7 4 -20 10 -30 11 -20 40 -149 47 -212 3 -25 9
-50 14 -56 5 -6 9 -24 9 -40 0 -67 9 -219 15 -241 3 -14 1 -23 -6 -23 -6 0 -9
-7 -5 -15 3 -8 1 -15 -4 -15 -6 0 -10 10 -11 23 -3 91 -17 177 -28 177 -5 0
-16 11 -25 24 -12 20 -13 31 -5 55 10 27 7 38 -19 83 -19 34 -38 55 -53 58
-26 6 -38 45 -20 63 14 14 14 27 1 27 -5 0 -10 -7 -10 -15 0 -8 -7 -15 -15
-15 -12 0 -15 13 -15 56 0 30 4 63 9 72 17 35 21 82 7 82 -29 0 -58 -69 -71
-168 -7 -54 -16 -104 -20 -113 -3 -9 1 -34 10 -55 19 -45 21 -106 7 -219 -8
-62 -19 -98 -51 -158 -23 -43 -41 -84 -41 -92 0 -24 -31 -109 -43 -120 -22
-18 -47 -64 -47 -85 0 -25 -12 -25 -59 -2 -20 10 -58 29 -84 42 -32 15 -101
76 -200 173 -184 181 -164 165 -262 222 -44 26 -84 52 -90 59 -17 21 -81 66
-94 66 -12 0 -58 37 -108 87 -62 64 -179 135 -283 172 -62 22 -202 26 -260 7
-28 -9 -70 -21 -93 -25 -109 -23 -195 -65 -316 -156 -56 -43 -116 -91 -134
-109 -18 -17 -52 -49 -77 -71 -25 -21 -54 -51 -65 -66 -11 -15 -53 -65 -94
-110 -116 -132 -131 -150 -131 -160 0 -16 -36 8 -55 38 -11 16 -14 28 -8 30
13 5 5 40 -14 68 -7 11 -13 29 -13 41 0 20 -23 86 -55 159 -38 89 -109 346
-135 495 -7 41 -17 80 -22 86 -5 7 -8 16 -6 20 7 27 -33 164 -60 204 -24 37
-42 71 -42 82 0 5 -10 24 -22 41 -31 42 -48 76 -48 93 0 17 0 17 43 -1 19 -8
59 -14 88 -14 30 1 77 -2 104 -6 101 -15 29 13 -140 54 -283 67 -349 97 -414
184 -49 65 -96 162 -104 213 -6 37 -4 41 39 73 24 18 44 37 44 42 0 4 -29 29
-65 54 -50 36 -65 53 -65 71 0 43 88 294 120 340 34 51 38 63 13 43 -9 -8 -14
-9 -10 -2 4 6 1 14 -5 16 -10 4 -10 6 0 6 6 1 12 8 12 16 0 17 34 33 95 46 97
20 158 37 135 38 -14 1 -41 -4 -60 -10 -19 -6 -60 -12 -90 -14 -32 -1 -79 -13
-114 -29 -70 -31 -71 -31 -95 -7 -18 18 -17 18 20 16 21 -1 43 2 51 6 10 7 10
9 -2 9 -13 0 -13 1 0 11 11 8 5 9 -23 4 -26 -4 -37 -3 -32 4 7 13 -20 4 -53
-17 -20 -13 -24 -13 -40 5 -9 10 -26 17 -37 16 l-20 -4 20 16 c19 15 21 14 38
-6 l18 -22 21 22 c11 13 28 21 38 18 10 -2 24 -1 31 4 11 7 10 9 -4 9 -10 0
-15 5 -12 10 4 6 10 8 15 5 10 -6 12 0 45 148 15 65 24 124 21 130 -2 7 -5 3
-5 -8 -1 -16 -3 -17 -11 -5 -5 8 -12 11 -16 7 -4 -4 -2 -13 4 -19 7 -7 12 -21
11 -33 0 -11 -3 -15 -5 -8 -7 16 -34 5 -34 -13 0 -10 -11 -7 -40 12 -43 28
-53 50 -20 39 11 -4 20 -3 19 2 -1 4 -1 24 0 43 l2 35 20 -24 c13 -16 23 -21
30 -14 7 7 5 14 -6 23 -8 7 -15 16 -15 21 0 16 53 57 67 52 8 -3 13 -2 12 3
-4 22 2 33 15 28 14 -5 20 11 31 81 2 17 9 48 14 70 5 22 12 54 15 70 3 17 15
76 27 133 12 56 20 104 18 106 -2 2 -29 6 -59 10 l-54 7 28 -26 c39 -36 25
-43 -19 -9 -22 16 -32 30 -25 34 6 4 -22 12 -62 19 -40 7 -125 24 -188 37 -63
13 -191 37 -285 54 -93 17 -209 38 -257 48 -72 15 -88 16 -88 4 0 -7 -5 -10
-10 -7 -6 4 -8 10 -5 14 2 5 -84 25 -193 45 -108 20 -216 41 -239 47 -44 9
-88 11 -65 2 6 -2 10 -9 7 -13 -8 -13 -35 0 -29 14 3 8 -26 18 -92 31 -91 18
-97 18 -109 2 -11 -15 -14 -16 -25 -2 -11 13 -10 14 4 9 9 -3 16 -2 16 4 0 5
-26 14 -57 19 -32 6 -130 25 -218 42 -229 45 -513 98 -563 105 -41 6 -43 6
-31 -15 9 -17 8 -24 -6 -38 -16 -15 -17 -14 -12 9 3 14 0 33 -7 42 -12 16
-244 66 -781 167 -88 17 -182 35 -210 41 -83 16 -108 21 -160 29 -87 14 -297
57 -400 82 -101 24 -133 26 -127 11 3 -8 -3 -21 -13 -28 -16 -12 -21 -11 -37
3 -21 19 -23 39 -5 46 6 2 -9 8 -35 12 -26 4 -52 4 -59 -1 -7 -4 -10 -3 -6 3
5 8 -72 30 -138 39 -11 1 -69 12 -130 23 -60 11 -150 28 -200 36 -49 9 -98 18
-107 21 -20 6 -26 -24 -8 -42 5 -5 12 -24 14 -42 4 -36 -16 -44 -33 -14 -9 15
-10 15 -11 -5 0 -13 -4 -23 -10 -23 -5 0 -7 7 -4 15 4 8 1 15 -6 15 -6 0 -10
8 -9 18 1 9 -1 25 -4 35 -18 46 -17 47 10 41 16 -5 24 -3 20 3 -4 6 -21 13
-39 16 -48 8 -530 100 -773 147 -172 34 -433 83 -690 130 -22 4 -248 49 -503
100 -450 91 -463 93 -477 74 -12 -16 -16 -17 -24 -4 -5 8 -8 18 -5 22 5 8 -2
10 -121 32 -147 27 -1700 331 -1765 346 -25 5 -106 21 -180 35 -133 25 -251
48 -340 67 -25 5 -65 13 -90 18 -25 4 -92 17 -150 29 -58 12 -118 24 -135 27
-16 3 -64 13 -105 21 -41 9 -92 19 -112 23 l-38 7 0 -3608z m5632 2214 c2 -18
9 -28 19 -27 9 1 16 -4 17 -10 2 -22 14 -71 20 -86 3 -8 7 -31 8 -50 1 -19 6
-51 10 -70 6 -32 6 -34 -10 -21 -10 9 -16 24 -14 36 3 12 -2 27 -9 34 -18 16
-28 7 -18 -16 11 -26 14 -73 5 -73 -5 0 -10 5 -12 11 -5 16 -32 1 -45 -26 -9
-21 -9 -25 6 -25 11 0 17 -9 19 -26 1 -20 -2 -25 -13 -20 -10 3 -15 -1 -16
-12 -1 -16 -2 -16 -6 1 -2 9 -14 17 -26 17 -20 1 -21 2 -5 14 17 12 17 14 -2
36 -11 13 -20 31 -20 42 0 10 -5 18 -11 18 -5 0 -7 -4 -4 -10 3 -5 2 -10 -4
-10 -15 0 -1 -32 24 -53 20 -17 20 -18 0 -15 -11 2 -29 11 -39 20 -10 10 -23
15 -28 12 -4 -3 -8 4 -8 15 0 12 9 26 20 33 11 7 20 17 20 23 0 16 -37 35 -55
29 -10 -4 -15 0 -15 10 0 9 5 16 11 16 6 0 3 7 -5 16 -15 14 -23 74 -11 74 3
0 10 -11 15 -25 9 -24 30 -35 30 -15 0 6 -5 10 -11 10 -6 0 -8 9 -4 20 4 11 2
20 -4 20 -6 0 -11 9 -11 21 0 18 2 19 15 5 8 -8 15 -23 16 -33 0 -16 1 -16 8
2 5 11 4 22 0 23 -10 4 -12 36 -3 45 10 9 46 -12 39 -24 -4 -5 -1 -9 5 -9 7 0
9 8 5 20 -7 22 9 50 28 50 7 0 7 -4 -1 -12 -17 -17 -15 -31 4 -24 12 4 15 2
11 -9 -4 -8 -2 -17 3 -20 17 -11 11 -23 -9 -18 -11 3 -21 -2 -24 -11 -4 -9 -2
-16 3 -16 6 0 10 5 10 11 0 8 4 8 14 0 10 -9 16 -9 21 -1 5 8 11 8 21 -1 12
-10 13 -9 9 4 -4 8 -2 18 4 22 16 9 13 25 -4 25 -10 0 -15 10 -15 30 0 38 18
40 22 3z m48 -717 c0 -13 7 -29 15 -36 8 -7 15 -18 15 -24 0 -6 22 -32 48 -57
41 -39 47 -50 41 -72 -11 -40 0 -65 33 -76 16 -6 32 -19 34 -29 3 -10 18 -26
35 -37 16 -11 29 -23 29 -27 0 -5 9 -8 20 -8 28 0 76 -26 83 -45 10 -24 -39
-19 -60 8 -10 12 -36 31 -58 42 -22 11 -41 23 -43 28 -2 4 -17 7 -33 7 -27 0
-28 -1 -18 -27 8 -22 7 -30 -6 -40 -10 -6 -14 -17 -10 -24 5 -7 3 -10 -6 -7
-8 3 -14 11 -14 19 -1 30 -18 84 -31 97 -8 7 -12 18 -9 23 3 5 -11 35 -31 66
-41 64 -52 103 -28 103 8 0 12 5 9 10 -4 6 -10 8 -14 5 -5 -2 -6 6 -4 19 3 16
-2 31 -16 45 -27 27 -28 61 -1 61 14 0 20 -7 20 -24z m-4253 -101 c18 -12 54
-15 175 -15 174 0 211 0 253 0 50 0 115 -7 122 -14 4 -3 1 -6 -5 -6 -6 0 -9
-7 -5 -16 8 -20 -16 -35 -38 -24 -9 5 -18 7 -21 5 -2 -2 -38 -7 -80 -9 -42 -3
-88 -8 -103 -12 -17 -4 -30 -2 -35 5 -5 10 -10 9 -21 -1 -15 -15 -74 -15 -219
-1 -60 6 -84 12 -82 21 6 32 11 58 11 70 1 16 22 15 48 -3z m7042 -1194 c24
-39 34 -48 50 -44 12 3 21 9 21 14 0 15 17 10 24 -6 3 -10 -1 -18 -12 -22 -31
-12 -43 -43 -17 -43 8 0 15 -5 15 -11 0 -5 4 -8 9 -5 10 6 25 -10 34 -36 4
-13 2 -16 -11 -12 -15 5 -15 4 -1 -8 8 -7 18 -21 22 -30 3 -10 11 -18 17 -18
5 0 10 -10 11 -22 l0 -23 10 24 c7 18 5 27 -8 38 -14 11 -15 16 -5 20 10 4 10
8 1 19 -6 8 -8 14 -3 14 5 0 2 5 -6 11 -12 8 -10 9 8 4 24 -7 28 5 12 36 -7
13 -7 19 0 19 5 0 10 7 10 16 0 11 5 14 16 10 15 -6 15 -4 0 18 -15 24 -7 44
12 32 4 -2 14 5 21 16 11 17 11 20 -1 16 -60 -23 -79 -20 -30 5 42 21 60 4 56
-53 -1 -25 0 -53 2 -62 6 -19 34 -25 34 -8 0 6 7 10 15 10 17 0 20 -16 5 -25
-5 -3 -10 -17 -10 -31 0 -14 4 -22 10 -19 6 3 10 -1 10 -10 0 -9 -5 -13 -11
-10 -7 5 -8 -5 -3 -29 3 -20 2 -36 -2 -35 -22 4 -43 -2 -61 -19 -18 -15 -19
-20 -8 -35 13 -18 14 -18 24 0 9 17 11 17 27 1 19 -18 11 -40 -14 -37 -24 2
-62 -12 -62 -22 0 -5 7 -9 15 -9 8 0 15 5 15 10 0 6 8 5 19 -2 22 -14 18 -30
-7 -26 -12 2 -17 -4 -17 -24 0 -32 -12 -47 -21 -24 -7 18 -30 22 -36 6 -2 -6
-11 -4 -23 5 -20 16 -20 16 3 12 14 -4 22 0 22 9 0 14 -12 18 -40 14 -10 -1
-7 6 9 21 l24 23 -29 9 c-38 13 -55 27 -48 39 4 6 10 5 15 -3 4 -7 11 -10 15
-7 3 4 -6 22 -21 40 -15 17 -31 41 -36 52 -28 60 -35 67 -55 51 -41 -31 -60
-11 -22 25 17 16 18 20 6 20 -9 0 -15 8 -14 18 0 10 -5 16 -14 15 -10 -2 -16
5 -16 16 0 13 5 17 16 13 13 -5 13 -3 -1 14 -9 10 -22 28 -28 39 -12 19 -12
19 -6 -2 3 -12 2 -24 -3 -26 -14 -9 -8 38 8 55 8 10 18 17 22 18 3 0 20 -22
37 -49z m2280 -710 c12 -10 30 -17 40 -14 10 3 22 0 25 -6 4 -6 0 -11 -9 -11
-9 0 -13 -5 -10 -11 5 -7 13 -5 24 5 15 14 18 13 29 -4 7 -11 12 -27 12 -35 0
-8 4 -15 10 -15 5 0 12 -11 16 -25 3 -14 10 -25 14 -25 15 0 50 -84 40 -94
-15 -15 -12 -24 8 -22 19 1 65 -82 54 -99 -3 -5 -7 -29 -7 -51 -1 -31 2 -41
12 -37 9 3 13 -3 13 -21 0 -19 -5 -26 -19 -26 -10 0 -24 -7 -31 -15 -13 -16
-40 -21 -40 -7 0 5 10 19 22 32 20 22 21 23 3 16 -11 -5 -27 -9 -35 -10 -8 -1
-25 -8 -37 -14 -15 -8 -23 -9 -23 -2 0 6 -10 8 -25 4 -23 -6 -33 4 -19 19 10
9 13 67 4 67 -4 0 -17 42 -29 93 -21 87 -27 124 -30 175 -1 13 -7 22 -17 22
-10 0 -13 6 -10 18 4 10 -1 27 -9 38 -15 20 -20 56 -8 67 8 9 7 10 32 -12z
m-2058 -332 c19 -13 39 -19 55 -16 28 5 31 -1 7 -19 -16 -12 -16 -15 -3 -24
13 -9 13 -11 0 -20 -24 -16 -36 -12 -35 13 0 12 -4 22 -10 22 -5 0 -9 -6 -7
-12 2 -7 -4 -13 -13 -13 -13 0 -15 -7 -9 -35 5 -29 3 -35 -11 -35 -11 0 -15
-5 -11 -15 3 -8 1 -15 -4 -15 -6 0 -10 4 -10 10 0 5 -6 7 -13 4 -17 -6 -41 21
-32 35 3 6 0 9 -7 6 -17 -7 -62 42 -47 50 5 4 8 14 7 23 -2 12 3 16 17 14 16
-2 17 -1 5 7 -12 8 -12 13 -2 23 9 9 12 9 12 0 0 -17 39 -15 56 3 20 19 20 19
55 -6z m-261 -281 c14 -15 19 -30 15 -45 -4 -16 -1 -23 10 -23 8 0 15 -6 15
-14 0 -15 -36 -11 -46 5 -9 15 -34 10 -34 -6 0 -9 -12 -20 -26 -25 -14 -6 -22
-14 -19 -20 3 -5 2 -10 -4 -10 -5 0 -14 8 -20 18 -8 14 -13 15 -28 4 -10 -7
-26 -15 -35 -18 -20 -7 -23 -20 -8 -29 16 -10 -8 -35 -26 -28 -19 7 -49 63
-34 63 8 0 8 6 0 20 -7 14 -7 20 0 20 9 0 15 -21 11 -43 -1 -8 82 44 87 55 5
12 32 -3 32 -18 0 -17 5 -17 31 -4 25 14 25 33 -1 25 -26 -8 -25 2 3 26 20 17
20 18 3 19 -16 0 -16 2 -5 16 7 8 21 13 31 11 11 -3 18 0 18 9 0 19 6 18 30
-8z m-3795 -605 c-3 -49 -8 -114 -11 -145 -4 -41 -2 -66 9 -88 9 -17 11 -28 6
-25 -11 8 -12 -45 0 -63 6 -10 16 -1 36 33 26 45 27 56 9 100 -7 20 -7 20 14
1 20 -18 22 -18 22 -1 0 12 5 15 16 11 12 -5 15 -2 10 10 -4 10 -1 14 6 12 24
-8 20 -45 -6 -66 -15 -11 -26 -29 -26 -41 0 -12 -6 -21 -15 -21 -8 0 -15 -9
-15 -20 0 -10 -6 -23 -13 -27 -8 -4 -16 -16 -20 -26 -4 -9 -18 -22 -32 -29
-38 -17 -59 8 -63 76 -2 36 1 56 8 56 6 0 9 4 6 8 -3 5 -1 24 4 43 8 29 28
165 35 234 2 22 15 55 21 55 3 0 2 -39 -1 -87z m6805 -285 c66 -76 100 -137
100 -180 0 -50 -14 -49 -78 10 -51 47 -52 49 -41 81 13 37 1 90 -29 124 -8 9
-11 17 -6 17 5 0 29 -23 54 -52z m2916 -108 c27 0 30 9 12 29 -11 11 -10 13 5
7 10 -3 34 -6 53 -6 24 0 34 -5 34 -15 0 -8 -7 -15 -15 -15 -9 0 -15 -9 -15
-23 0 -12 -11 -39 -25 -59 -20 -29 -30 -36 -54 -34 -37 3 -76 35 -61 50 5 5
10 17 9 26 0 10 -2 11 -6 3 -8 -21 -29 -14 -42 14 -9 21 -9 28 0 34 10 6 10
13 1 34 -18 40 -15 40 34 -4 27 -23 57 -41 70 -41z m-3054 -218 c24 -62 23
-78 -7 -98 -28 -18 -85 -11 -85 12 0 8 5 14 10 14 6 0 10 6 10 13 0 8 -20 12
-62 13 -134 3 -149 19 -23 26 71 4 89 8 105 26 25 26 24 26 -30 7 -23 -8 -63
-14 -89 -14 l-46 2 55 6 c30 4 73 16 95 28 22 12 42 19 45 17 2 -3 12 -26 22
-52z m-4236 -431 c2 -17 -1 -31 -6 -31 -12 0 -13 -37 -1 -44 17 -11 72 6 67
20 -4 11 5 12 42 8 26 -4 54 -7 62 -8 8 -1 21 -5 28 -9 6 -5 17 -5 24 -1 8 5
9 2 5 -9 -4 -11 -1 -17 8 -17 8 0 23 -8 34 -19 18 -18 17 -19 -20 -42 -35 -21
-55 -46 -46 -56 9 -8 35 9 45 30 8 17 11 18 11 5 1 -9 7 -19 14 -22 10 -5 10
-7 0 -12 -18 -8 -16 -24 2 -24 8 0 20 -9 27 -20 16 -25 38 -25 71 0 30 24 37
25 37 4 0 -9 -9 -18 -20 -21 -21 -6 -27 -19 -10 -25 6 -2 6 -9 0 -17 -6 -12
-12 -12 -23 -3 -16 13 -30 5 -19 -12 12 -20 8 -76 -7 -81 -8 -3 -16 -3 -19 0
-3 3 0 5 7 5 15 0 -17 34 -33 36 -6 1 -21 5 -33 9 -21 7 -21 8 -6 23 11 11 18
13 20 5 6 -17 42 -3 49 19 8 26 -14 48 -52 52 -16 1 -28 7 -27 13 3 14 -23 11
-39 -5 -17 -17 -62 -16 -52 1 6 9 4 9 -8 -1 -10 -8 -19 -9 -22 -3 -4 5 3 12
14 16 29 9 25 22 -9 30 -44 9 -64 37 -57 79 5 28 3 36 -10 36 -11 0 -13 -6 -9
-20 7 -24 -10 -27 -19 -4 -5 14 -10 13 -42 -5 -20 -12 -37 -21 -38 -19 0 2 -7
13 -14 26 -11 20 -10 22 9 22 16 0 19 5 15 20 -3 11 -8 29 -11 39 -3 11 -1 22
5 26 6 4 16 18 21 33 12 31 30 18 35 -27z m694 -41 c0 -5 -8 -10 -17 -10 -17
-1 -17 -1 0 -14 18 -14 24 -56 8 -56 -5 0 -7 9 -4 20 3 11 1 20 -5 20 -6 0
-19 3 -29 6 -17 5 -17 5 -1 -9 10 -8 15 -17 11 -21 -4 -3 3 -13 15 -22 25 -17
29 -34 8 -34 -8 0 -17 -7 -20 -16 -4 -12 -2 -15 9 -10 24 9 17 -12 -14 -43
-21 -21 -33 -26 -45 -19 -10 5 -16 5 -16 0 0 -5 -9 -12 -21 -15 -12 -3 -18
-10 -14 -16 6 -11 -43 -36 -53 -26 -3 3 -14 -2 -24 -12 -10 -9 -18 -11 -18 -5
0 6 5 14 10 17 6 4 8 11 4 16 -3 5 0 16 6 24 10 12 10 15 -2 15 -19 0 -44 -32
-40 -52 4 -21 -9 -23 -26 -6 -9 9 -6 17 15 34 24 19 26 24 14 38 -12 14 -11
19 5 31 30 23 51 19 29 -5 -14 -16 -15 -20 -4 -24 39 -12 58 -13 62 -2 3 8 9
7 21 -3 9 -8 19 -11 22 -9 6 7 -50 48 -65 48 -6 0 -11 7 -11 16 0 8 5 12 11 9
5 -4 19 1 30 11 20 18 26 44 9 44 -5 0 -10 5 -10 11 0 6 7 9 15 5 9 -3 15 0
15 8 0 13 27 31 43 28 4 -1 7 5 7 14 0 11 6 13 19 9 11 -3 22 -1 26 5 8 13 25
13 25 0z m-820 -280 c11 -7 11 -10 2 -10 -7 0 -26 -14 -42 -32 -29 -31 -80
-49 -80 -28 0 5 -4 10 -10 10 -5 0 -7 -8 -3 -17 5 -15 3 -16 -8 -5 -7 6 -21
12 -31 12 -30 0 -112 -31 -133 -51 -12 -10 -36 -22 -55 -25 -41 -8 -90 -31
-90 -42 0 -5 6 -14 13 -21 10 -10 4 -11 -28 -6 -31 5 -44 3 -54 -9 -7 -9 -20
-16 -28 -16 -8 0 -26 -13 -40 -30 -13 -16 -30 -30 -36 -30 -6 0 -21 -9 -33
-21 -36 -34 -73 -32 -118 5 -24 21 -34 36 -28 40 6 4 21 -5 34 -19 28 -33 45
-32 53 4 3 15 19 41 35 56 17 16 30 37 30 46 0 23 19 35 25 16 4 -9 22 -13 59
-12 42 2 65 9 105 35 28 19 61 34 73 35 11 1 27 9 33 19 10 13 18 14 39 6 14
-5 26 -6 26 -1 0 14 37 26 106 34 32 5 72 19 124 47 41 23 41 22 60 10z m-958
-240 c9 -10 24 -32 32 -48 14 -28 14 -30 -4 -35 -23 -6 -34 7 -26 28 10 27
-15 15 -32 -15 -15 -27 -42 -41 -42 -22 0 4 -12 13 -27 19 -22 11 -29 10 -44
-3 -19 -17 -54 -15 -54 3 0 6 -3 15 -7 19 -5 4 -8 16 -8 26 0 15 9 18 58 20
31 0 64 1 74 0 9 -1 22 5 28 13 17 20 32 19 52 -5z"/>
<path d="M19933 6720 c-51 -10 -98 -22 -104 -26 -6 -4 -46 -10 -89 -15 -43 -4
-99 -11 -125 -15 -35 -5 -46 -4 -41 5 10 15 -5 13 -29 -5 -11 -8 -47 -23 -81
-34 -65 -20 -170 -69 -216 -102 -50 -35 -121 -126 -113 -145 6 -17 7 -17 21 1
14 20 14 20 28 0 13 -17 12 -20 -3 -26 -10 -3 -26 -25 -35 -47 -21 -53 -21
-67 -1 -51 14 11 14 10 5 -14 -5 -15 -10 -44 -10 -65 0 -20 -4 -41 -10 -47 -6
-6 -1 -38 15 -88 13 -43 22 -82 20 -86 -2 -4 3 -17 11 -29 12 -16 24 -21 46
-19 20 2 33 -2 36 -11 4 -11 -4 -13 -37 -8 l-41 5 0 -83 c0 -92 -16 -156 -30
-120 -6 17 -9 14 -19 -20 -16 -59 -14 -80 14 -113 31 -37 127 -77 180 -75 109
3 455 2 570 -3 72 -3 157 -5 189 -5 32 1 64 -3 70 -8 6 -5 72 -14 146 -20 74
-6 150 -14 168 -17 l32 -6 0 63 c-1 57 -4 67 -28 90 -15 14 -54 34 -87 44 -33
11 -65 23 -71 27 -16 12 -64 -8 -64 -26 0 -29 -18 -24 -96 24 -43 27 -96 52
-117 56 -21 3 -51 12 -65 20 -15 8 -34 14 -42 14 -8 0 8 -11 35 -25 28 -14 41
-23 30 -21 -83 18 -83 18 -95 -4 -13 -24 -68 -60 -90 -59 -10 0 -11 2 -2 6 6
2 12 12 12 20 0 10 -6 13 -16 9 -9 -4 -22 -2 -28 2 -25 20 -206 100 -210 93
-5 -7 21 -22 117 -66 31 -15 57 -27 57 -29 0 -7 -393 7 -427 16 -48 12 -50 18
-28 92 8 27 15 62 15 78 0 24 4 28 29 28 16 0 31 -6 34 -14 8 -19 155 -99 171
-93 7 3 16 23 19 44 3 21 9 48 13 60 5 19 0 25 -30 40 -20 9 -36 20 -36 24 0
3 21 12 47 20 26 7 41 15 35 17 -7 2 -33 -3 -58 -12 -33 -11 -52 -13 -65 -5
-29 15 -23 26 24 43 35 14 37 15 11 12 -18 -3 -43 -8 -56 -11 -16 -4 -33 1
-52 16 l-28 22 23 14 c23 14 23 14 -9 9 -29 -5 -35 -2 -49 23 -9 15 -30 34
-47 41 -24 10 -27 14 -13 17 19 5 22 18 6 28 -6 4 -8 14 -5 22 4 9 -1 17 -15
20 -11 3 -18 11 -15 19 3 7 1 27 -4 44 -7 24 -5 38 6 56 23 35 119 95 199 125
180 68 258 80 520 84 105 1 199 6 210 10 14 5 17 5 10 -3 -5 -5 -30 -17 -55
-26 -36 -14 -38 -15 -10 -9 48 10 242 7 249 -5 3 -5 36 -12 74 -16 l67 -7 0
105 0 104 -32 6 c-60 11 -212 25 -328 30 -90 4 -135 1 -207 -14z"/>
<path d="M18645 5682 c6 -21 4 -22 -32 -18 -58 7 -130 -15 -157 -49 -21 -26
-26 -28 -49 -18 -14 7 -33 24 -43 38 -9 14 -21 25 -28 25 -6 0 -34 -18 -62
-39 -28 -21 -76 -54 -105 -73 -30 -20 -67 -47 -82 -62 -15 -14 -32 -26 -36
-26 -5 0 -11 -7 -15 -15 -3 -8 -17 -15 -31 -15 -32 0 -59 -25 -51 -46 5 -13 2
-15 -16 -11 -17 5 -30 -2 -54 -30 -21 -24 -37 -34 -48 -30 -10 4 -16 1 -16 -8
0 -17 35 -20 45 -5 8 14 25 3 25 -16 0 -10 -6 -13 -19 -9 -12 4 -21 0 -25 -12
-6 -15 -8 -15 -16 -3 -8 12 -10 12 -10 -4 0 -11 5 -16 14 -13 7 3 18 1 23 -4
6 -6 29 -5 61 2 29 7 55 10 58 6 12 -11 15 -75 4 -82 -5 -3 -10 -18 -10 -32 0
-25 -1 -25 -19 -9 -19 17 -20 17 -32 -6 -7 -13 -12 -25 -12 -28 1 -3 -3 -4 -7
-3 -4 1 -6 -7 -3 -18 5 -18 2 -20 -18 -15 -13 3 -18 3 -11 0 25 -12 12 -26
-19 -19 -21 5 -36 2 -47 -8 -9 -8 -28 -18 -42 -22 -66 -20 -88 -61 -29 -53 18
3 28 0 26 -6 -5 -15 -59 -44 -84 -45 -34 -1 -27 -31 10 -44 22 -8 12 -30 -11
-23 -49 13 -94 17 -87 7 3 -7 0 -8 -9 -5 -10 4 -16 1 -16 -8 0 -10 -10 -13
-37 -10 -35 4 -36 3 -19 -11 18 -13 18 -14 -8 -21 -22 -5 -25 -10 -20 -31 4
-17 2 -25 -7 -25 -8 0 -20 -4 -28 -9 -12 -8 -12 -12 -2 -25 10 -12 10 -16 1
-16 -6 0 0 -14 14 -31 33 -39 33 -56 0 -30 -21 16 -30 18 -49 9 -36 -16 -20
-37 23 -32 20 2 31 2 25 -2 -7 -3 -13 -12 -13 -19 0 -10 -11 -12 -42 -8 -27 4
-39 3 -35 -5 5 -6 0 -8 -12 -5 -12 3 -19 0 -18 -9 1 -33 -4 -46 -23 -51 -15
-4 -20 0 -20 13 0 20 -26 34 -36 19 -3 -5 0 -17 7 -25 8 -10 9 -18 2 -22 -5
-4 -12 -13 -15 -21 -2 -8 -20 -15 -40 -16 -30 -2 -35 0 -31 16 4 13 0 19 -10
19 -8 0 -23 3 -32 6 -14 6 -13 1 4 -30 27 -46 27 -62 1 -36 -11 11 -20 25 -20
31 0 6 -9 8 -20 4 -11 -4 -20 -2 -20 4 0 6 -4 11 -9 11 -16 0 -6 -35 16 -54
21 -18 21 -20 5 -32 -11 -8 -21 -9 -29 -2 -17 14 -32 2 -26 -22 7 -26 -13 -26
-27 -1 -7 14 -6 21 3 24 6 2 8 8 4 13 -12 12 -28 -18 -21 -40 5 -16 3 -15 -25
5 -34 25 -42 45 -13 34 12 -4 14 -3 6 5 -6 6 -28 13 -48 15 -32 3 -36 1 -36
-21 0 -30 -11 -31 -28 -3 -7 11 -20 18 -27 15 -21 -8 -105 24 -105 39 0 8 -8
19 -17 24 -12 7 -14 13 -7 18 12 9 14 53 2 53 -4 0 -8 -5 -8 -11 0 -14 -55
-94 -99 -143 -175 -195 -541 -218 -796 -51 -37 25 -70 45 -72 45 -8 0 47 -78
142 -201 20 -25 48 -52 63 -60 15 -8 33 -22 40 -31 15 -20 162 -118 212 -140
92 -42 239 -47 347 -13 26 8 64 20 83 26 40 12 47 15 150 59 96 41 244 112
250 119 12 14 60 41 75 41 8 0 15 4 15 9 0 5 26 24 58 42 31 18 59 36 62 39 3
4 21 15 40 26 37 21 52 31 78 54 10 8 49 35 87 60 39 24 72 47 75 50 5 5 96
79 130 107 8 6 35 28 59 48 24 20 57 43 73 51 15 8 28 19 28 23 0 11 155 124
281 206 123 79 164 93 274 94 110 2 336 25 357 37 9 5 44 34 78 64 84 74 128
100 171 100 20 0 42 7 49 15 12 15 10 20 -35 81 -6 9 -4 27 6 56 17 46 5 40
184 91 52 15 72 37 33 37 -12 0 -54 17 -93 38 -82 43 -89 61 -52 134 13 26 22
50 20 52 -4 4 -36 -7 -98 -33 -138 -59 -241 -51 -308 24 -18 20 -18 20 -12 -3z
m-175 -192 c22 -11 59 -20 83 -20 27 0 49 -6 57 -15 17 -21 3 -73 -26 -91 -33
-22 -68 -11 -112 35 -20 21 -47 41 -59 45 -26 8 -37 34 -22 52 16 19 33 18 79
-6z"/>
<path d="M12930 5032 c0 -11 -4 -23 -9 -26 -38 -24 -51 -539 -18 -716 22 -118
74 -275 123 -372 88 -174 213 -322 296 -348 24 -8 53 -20 65 -28 12 -7 30 -12
39 -10 15 3 13 8 -10 35 -14 17 -48 43 -74 58 -204 117 -264 187 -347 405 -94
245 -126 533 -85 750 13 69 31 262 25 268 -3 3 -5 -4 -5 -16z"/>
<path d="M14704 4885 c-22 -52 -64 -229 -80 -330 -16 -108 -18 -179 -4 -206
15 -28 33 -24 28 6 -3 14 -2 28 3 30 4 3 6 25 5 50 -2 25 2 69 9 99 7 30 10
57 7 60 -3 3 0 6 6 6 7 0 12 12 11 28 -2 60 14 142 27 142 18 0 18 6 -3 41
-15 26 -16 31 -3 39 8 5 11 12 8 15 -4 4 -3 18 2 31 15 38 1 28 -16 -11z"/>
<path d="M13003 4753 c-14 -50 -7 -343 11 -461 40 -267 114 -423 249 -526 120
-91 409 -206 517 -206 77 0 85 16 13 25 -73 9 -188 48 -283 95 -41 20 -100 45
-130 55 -80 25 -132 58 -183 115 -135 150 -210 482 -173 764 9 66 18 121 21
124 7 7 -14 42 -25 42 -5 0 -13 -12 -17 -27z"/>
<path d="M12725 4634 c-4 -53 -5 -157 -2 -232 4 -119 9 -153 40 -259 55 -187
145 -347 263 -468 127 -130 377 -355 394 -355 11 0 20 2 20 4 0 3 -234 216
-319 291 -141 123 -258 283 -310 425 -61 166 -87 360 -77 563 4 70 5 127 2
127 -2 0 -7 -43 -11 -96z"/>
<path d="M13470 4258 c0 -139 56 -245 179 -339 65 -50 84 -59 157 -75 161 -33
344 -2 413 72 35 38 20 39 -39 2 -52 -32 -57 -33 -154 -32 -86 1 -114 5 -186
31 -104 37 -170 62 -190 70 -8 3 -18 7 -21 7 -3 1 -22 12 -42 26 -35 24 -57
57 -57 86 0 9 -5 12 -12 8 -6 -4 -8 -3 -5 3 3 5 1 27 -5 49 -11 39 -15 72 -17
132 -1 17 -5 32 -11 32 -6 0 -10 -31 -10 -72z"/>
<path d="M13544 3763 c2 -20 11 -31 30 -37 14 -6 26 -13 26 -18 0 -4 8 -8 18
-8 10 0 23 -5 29 -11 18 -18 137 -56 198 -64 62 -7 147 2 124 15 -8 4 -33 10
-56 14 -35 5 -122 39 -238 91 -16 8 -47 17 -68 21 -20 3 -40 10 -43 15 -11 19
-23 8 -20 -18z"/>
</g>
</svg>
